<svg width="25" height="26" viewBox="0 0 25 26" fill="none" xmlns="http://www.w3.org/2000/svg">
<path d="M12.5073 2.2523C15.8491 2.2523 16.2449 2.267 17.5591 2.3256C18.7805 2.3793 19.4401 2.5845 19.8798 2.7555C20.4612 2.9803 20.8814 3.2539 21.3162 3.6887C21.7559 4.1284 22.0246 4.5437 22.2494 5.1251C22.4204 5.5648 22.6256 6.2292 22.6793 7.4458C22.7379 8.7649 22.7526 9.1606 22.7526 12.4976C22.7526 15.8394 22.7379 16.2351 22.6793 17.5493C22.6256 18.7708 22.4204 19.4303 22.2494 19.87C22.0246 20.4514 21.751 20.8716 21.3162 21.3064C20.8765 21.7461 20.4612 22.0149 19.8798 22.2396C19.4401 22.4106 18.7757 22.6158 17.5591 22.6695C16.24 22.7282 15.8442 22.7428 12.5073 22.7428C9.1655 22.7428 8.7698 22.7282 7.4555 22.6695C6.2341 22.6158 5.5746 22.4106 5.1348 22.2396C4.5534 22.0149 4.1333 21.7413 3.6985 21.3064C3.2587 20.8667 2.99 20.4514 2.7653 19.87C2.5943 19.4303 2.3891 18.7659 2.3354 17.5493C2.2767 16.2302 2.2621 15.8345 2.2621 12.4976C2.2621 9.1558 2.2767 8.76 2.3354 7.4458C2.3891 6.2243 2.5943 5.5648 2.7653 5.1251C2.99 4.5437 3.2636 4.1235 3.6985 3.6887C4.1382 3.249 4.5534 2.9803 5.1348 2.7555C5.5746 2.5845 6.239 2.3793 7.4555 2.3256C8.7698 2.267 9.1655 2.2523 12.5073 2.2523ZM12.5073 0C9.1118 0 8.6867 0.0147004 7.3529 0.0733004C6.024 0.1319 5.1104 0.3469 4.3189 0.6547C3.4933 0.9771 2.7946 1.4022 2.1008 2.1008C1.4022 2.7946 0.9771 3.4933 0.6547 4.3141C0.3469 5.1104 0.1319 6.0192 0.0733004 7.3481C0.0147004 8.6867 0 9.1118 0 12.5073C0 15.9029 0.0147004 16.3279 0.0733004 17.6617C0.1319 18.9906 0.3469 19.9042 0.6547 20.6957C0.9771 21.5214 1.4022 22.2201 2.1008 22.9138C2.7946 23.6076 3.4933 24.0375 4.3141 24.3551C5.1104 24.6629 6.0192 24.8779 7.3481 24.9365C8.6818 24.9951 9.1069 25.0098 12.5024 25.0098C15.898 25.0098 16.323 24.9951 17.6568 24.9365C18.9857 24.8779 19.8994 24.6629 20.6908 24.3551C21.5116 24.0375 22.2103 23.6076 22.904 22.9138C23.5978 22.2201 24.0278 21.5214 24.3453 20.7006C24.6531 19.9042 24.8681 18.9955 24.9267 17.6666C24.9853 16.3328 25 15.9078 25 12.5122C25 9.1167 24.9853 8.6916 24.9267 7.3578C24.8681 6.0289 24.6531 5.1153 24.3453 4.3238C24.0375 3.4933 23.6125 2.7946 22.9138 2.1008C22.2201 1.4071 21.5214 0.9771 20.7006 0.6596C19.9042 0.3518 18.9955 0.1368 17.6666 0.0782003C16.3279 0.0147003 15.9029 0 12.5073 0Z" fill="black"/>
<path d="M12.5067 6.08203C8.95973 6.08203 6.08203 8.95973 6.08203 12.5067C6.08203 16.0537 8.95973 18.9314 12.5067 18.9314C16.0537 18.9314 18.9314 16.0537 18.9314 12.5067C18.9314 8.95973 16.0537 6.08203 12.5067 6.08203ZM12.5067 16.6742C10.2055 16.6742 8.33923 14.8078 8.33923 12.5067C8.33923 10.2055 10.2055 8.33923 12.5067 8.33923C14.8078 8.33923 16.6742 10.2055 16.6742 12.5067C16.6742 14.8078 14.8078 16.6742 12.5067 16.6742Z" fill="black"/>
<path d="M20.6873 5.82802C20.6873 6.65862 20.0131 7.32792 19.1874 7.32792C18.3568 7.32792 17.6875 6.65372 17.6875 5.82802C17.6875 4.99752 18.3617 4.32812 19.1874 4.32812C20.0131 4.32812 20.6873 5.00232 20.6873 5.82802Z" fill="black"/>
</svg>
