<svg width="853" height="528" viewBox="0 0 853 528" fill="none" xmlns="http://www.w3.org/2000/svg">
<g clip-path="url(#clip0_2667_5165)">
<path d="M852.757 230.621H618.268C618.268 281.387 655.496 314.747 711.097 314.747C752.193 314.747 783.136 298.793 793.772 270.267H848.406C830.034 326.351 780.235 358.261 711.097 358.261C623.586 358.261 568.469 305.078 568.469 221.435C568.469 137.309 624.07 82.6758 711.097 82.6758C800.058 82.6758 852.757 134.892 852.757 221.435V230.621ZM619.235 197.261H802.475C795.223 153.264 761.379 126.189 711.097 126.189C661.298 126.189 626.971 152.781 619.235 197.261Z" fill="#F1173A"/>
<path d="M511.984 0V351.009H465.086V0H511.984Z" fill="#F1173A"/>
<path d="M387.804 0V351.009H340.906V0H387.804Z" fill="#F1173A"/>
<path d="M284.288 230.621H49.7988C49.7988 281.387 87.027 314.747 142.628 314.747C183.724 314.747 214.667 298.793 225.303 270.267H279.937C261.564 326.351 211.766 358.261 142.628 358.261C55.1171 358.261 0 305.078 0 221.435C0 137.309 55.6006 82.6758 142.628 82.6758C231.588 82.6758 284.288 134.892 284.288 221.435V230.621ZM50.7657 197.261H234.006C226.754 153.264 192.91 126.189 142.628 126.189C92.8288 126.189 58.5015 152.781 50.7657 197.261Z" fill="#F1173A"/>
<path d="M795.773 448.321H814.869V446.327C814.869 434.852 810.817 425.656 802.945 419.381C795.141 413.16 783.836 410.01 769.675 410.01C754.419 410.01 742.506 413.148 734.357 419.127C726.121 425.169 721.939 433.961 721.939 444.685C721.939 453.354 724.649 460.165 730.339 465.253C735.938 470.26 744.214 473.409 754.976 475.301L781.729 480.076C786.244 480.864 791.318 481.904 794.996 484.838C797.515 486.847 798.767 489.516 798.767 493.483C798.767 498.428 796.539 502.397 792.024 505.225C787.405 508.118 780.319 509.845 770.721 509.845C759.698 509.845 751.833 507.817 746.688 504.007C741.644 500.271 738.921 494.6 738.638 486.549L738.57 484.625H718.352V486.619C718.352 500.07 722.79 510.554 731.68 517.615C740.489 524.612 753.377 528.01 769.824 528.01C785.317 528.01 797.562 524.717 805.985 518.518C814.488 512.261 818.905 503.179 818.905 492.14C818.905 482.577 816.005 475.681 809.853 470.689C802.505 464.727 792.571 462.516 783.499 460.783L759.74 456.158C753.188 454.894 748.747 453.462 745.952 451.459C743.349 449.594 742.077 447.166 742.077 443.342C742.077 438.595 744.103 434.942 748.267 432.373C752.56 429.723 759.23 428.175 768.479 428.175C777.733 428.175 784.276 429.726 788.589 432.692C792.788 435.578 795.145 439.998 795.634 446.476L795.773 448.321Z" fill="white"/>
<path d="M696.556 448.321H677.46L677.321 446.476C676.832 439.998 674.474 435.578 670.276 432.692C665.963 429.726 659.42 428.175 650.166 428.175C640.917 428.175 634.247 429.723 629.954 432.373C625.79 434.942 623.764 438.595 623.764 443.342C623.764 447.166 625.036 449.594 627.639 451.459C630.434 453.462 634.875 454.894 641.427 456.158L665.192 460.784C676.676 462.958 685.544 465.825 691.54 470.689C697.692 475.681 700.592 482.577 700.592 492.14C700.592 503.179 696.174 512.261 687.672 518.518C679.249 524.717 667.004 528.01 651.511 528.01C635.064 528.01 622.176 524.612 613.367 517.615C604.477 510.554 600.039 500.07 600.039 486.619V484.625H620.257L620.325 486.549C620.608 494.6 623.33 500.271 628.375 504.007C633.52 507.817 641.385 509.845 652.408 509.845C662.006 509.845 669.091 508.118 673.711 505.225C678.226 502.397 680.454 498.428 680.454 493.483C680.454 489.516 679.202 486.847 676.683 484.838C674.023 482.716 669.763 481.181 663.424 480.077L636.663 475.301C625.901 473.409 617.625 470.26 612.026 465.253C606.336 460.165 603.626 453.354 603.626 444.685C603.626 433.961 607.808 425.169 616.043 419.127C624.193 413.148 636.106 410.01 651.361 410.01C665.523 410.01 676.828 413.16 684.632 419.381C692.504 425.656 696.556 434.852 696.556 446.327V448.321Z" fill="white"/>
<path d="M573.419 431.009H502.57V458.658H569.085V476.823H502.57V507.008H574.466V525.173H483.18V412.844H573.419V431.009Z" fill="white"/>
<path d="M429.427 501.153L364.125 412.844H340.492V525.173H359.434V436.875L424.586 525.173H448.369V412.844H429.427V501.153Z" fill="white"/>
<path d="M314.111 431.009H272.708V525.173H253.317V431.009H211.914V412.844H314.111V431.009Z" fill="white"/>
<path d="M184.351 412.844V525.173H164.961V412.844H184.351Z" fill="white"/>
<path d="M135.708 431.009H68.2965V458.658H128.235V476.823H68.2965V525.173H48.9062V412.844H135.708V431.009Z" fill="white"/>
</g>
<defs>
<clipPath id="clip0_2667_5165">
<rect width="853" height="528" fill="white"/>
</clipPath>
</defs>
</svg>
